<svg xmlns="http://www.w3.org/2000/svg" id="export" class="canvas" preserveAspectRatio="xMidYMid meet" style="" width="959" height="76"><rect id="background" fill="#fff" pointer-events="all" width="959" height="76"/><g id="origin" transform="translate(3.439998245239258, 3.440001106262207) scale(1)"><g id="clusters" class="clusters"/><g id="edge-paths" class="edge-paths" style="pointer-events: none;"><defs><marker id="arrowhead" viewBox="0 0 10 10" refX="9" refY="5" markerUnits="strokeWidth" markerWidth="8" markerHeight="6" orient="auto" style="fill: rgb(0, 0, 0);"><path d="M 0 0 L 10 5 L 0 10 L 4 5 z" style="stroke-width: 1px;"/></marker><marker id="arrowhead-select" viewBox="0 0 10 10" refX="9" refY="5" markerUnits="strokeWidth" markerWidth="8" markerHeight="6" orient="auto" style="fill: rgba(220, 0, 0, 0.9);"><path d="M 0 0 L 10 5 L 0 10 L 4 5 z" style="stroke-width: 1px;"/></marker><marker id="arrowhead-hover" viewBox="0 0 10 10" refX="9" refY="5" markerUnits="strokeWidth" markerWidth="8" markerHeight="6" orient="auto" style="fill: rgba(220, 0, 0, 0.9);"><path d="M 0 0 L 10 5 L 0 10 L 4 5 z" style="stroke-width: 1px;"/></marker></defs><path id="edge-input" class="edge-path" d="M37.32366752624512,34.40000104904175L38.99033419291178,34.40000104904175C40.65700085957845,34.40000104904175,43.99033419291178,34.40000104904175,53.07095909118652,34.40000104904175C62.151583989461265,34.40000104904175,76.97950045267741,34.40000104904175,91.80741691589355,34.40000104904175C106.6353333791097,34.40000104904175,121.46324984232585,34.40000104904175,130.5438747406006,34.40000104904175C139.62449963887533,34.40000104904175,142.95783297220865,34.40000104904175,144.62449963887533,34.40000104904175L146.291166305542,34.40000104904175" style="stroke: rgb(0, 0, 0); stroke-width: 1px; fill: none; marker-end: url(&quot;#arrowhead&quot;);"/><path id="edge-/Flatten_output_0" class="edge-path" d="M191.868501663208,34.40000104904175L193.53516832987467,34.40000104904175C195.20183499654135,34.40000104904175,198.53516832987467,34.40000104904175,201.868501663208,34.40000104904175C205.20183499654135,34.40000104904175,208.53516832987467,34.40000104904175,210.20183499654135,34.40000104904175L211.868501663208,34.40000104904175" style="stroke: rgb(0, 0, 0); stroke-width: 1px; fill: none; marker-end: url(&quot;#arrowhead&quot;);"/><path id="edge-/model/model.0/Gemm_output_0" class="edge-path" d="M286.868501663208,34.40000104904175L288.5351683298747,34.40000104904175C290.2018349965413,34.40000104904175,293.5351683298747,34.40000104904175,296.868501663208,34.40000104904175C300.2018349965413,34.40000104904175,303.5351683298747,34.40000104904175,305.2018349965413,34.40000104904175L306.868501663208,34.40000104904175" style="stroke: rgb(0, 0, 0); stroke-width: 1px; fill: none; marker-end: url(&quot;#arrowhead&quot;);"/><path id="edge-/model/model.1/Relu_output_0" class="edge-path" d="M341.2423343658447,34.40000104904175L342.9090010325114,34.40000104904175C344.57566769917804,34.40000104904175,347.9090010325114,34.40000104904175,351.2423343658447,34.40000104904175C354.57566769917804,34.40000104904175,357.9090010325114,34.40000104904175,359.57566769917804,34.40000104904175L361.2423343658447,34.40000104904175" style="stroke: rgb(0, 0, 0); stroke-width: 1px; fill: none; marker-end: url(&quot;#arrowhead&quot;);"/><path id="edge-/model/model.2/Gemm_output_0" class="edge-path" d="M436.2423343658447,34.40000104904175L437.9090010325114,34.40000104904175C439.57566769917804,34.40000104904175,442.9090010325114,34.40000104904175,446.2423343658447,34.40000104904175C449.57566769917804,34.40000104904175,452.9090010325114,34.40000104904175,454.57566769917804,34.40000104904175L456.2423343658447,34.40000104904175" style="stroke: rgb(0, 0, 0); stroke-width: 1px; fill: none; marker-end: url(&quot;#arrowhead&quot;);"/><path id="edge-/model/model.3/Relu_output_0" class="edge-path" d="M490.61616706848145,34.40000104904175L492.28283373514813,34.40000104904175C493.94950040181476,34.40000104904175,497.28283373514813,34.40000104904175,500.61616706848145,34.40000104904175C503.94950040181476,34.40000104904175,507.28283373514813,34.40000104904175,508.94950040181476,34.40000104904175L510.61616706848145,34.40000104904175" style="stroke: rgb(0, 0, 0); stroke-width: 1px; fill: none; marker-end: url(&quot;#arrowhead&quot;);"/><path id="edge-/model/model.4/Gemm_output_0" class="edge-path" d="M585.6161670684814,34.40000104904175L587.2828337351481,34.40000104904175C588.9495004018148,34.40000104904175,592.2828337351481,34.40000104904175,595.6161670684814,34.40000104904175C598.9495004018148,34.40000104904175,602.2828337351481,34.40000104904175,603.9495004018148,34.40000104904175L605.6161670684814,34.40000104904175" style="stroke: rgb(0, 0, 0); stroke-width: 1px; fill: none; marker-end: url(&quot;#arrowhead&quot;);"/><path id="edge-/model/model.5/Relu_output_0" class="edge-path" d="M639.9899997711182,34.40000104904175L641.6566664377848,34.40000104904175C643.3233331044515,34.40000104904175,646.6566664377848,34.40000104904175,649.9899997711182,34.40000104904175C653.3233331044515,34.40000104904175,656.6566664377848,34.40000104904175,658.3233331044515,34.40000104904175L659.9899997711182,34.40000104904175" style="stroke: rgb(0, 0, 0); stroke-width: 1px; fill: none; marker-end: url(&quot;#arrowhead&quot;);"/><path id="edge-/model/model.6/Gemm_output_0" class="edge-path" d="M734.9899997711182,34.40000104904175L736.6566664377848,34.40000104904175C738.3233331044515,34.40000104904175,741.6566664377848,34.40000104904175,744.9899997711182,34.40000104904175C748.3233331044515,34.40000104904175,751.6566664377848,34.40000104904175,753.3233331044515,34.40000104904175L754.9899997711182,34.40000104904175" style="stroke: rgb(0, 0, 0); stroke-width: 1px; fill: none; marker-end: url(&quot;#arrowhead&quot;);"/><path id="edge-output" class="edge-path" d="M825.1092472076416,34.40000104904175L831.9388303756714,34.40000104904175C838.7684135437012,34.40000104904175,852.4275798797607,34.40000104904175,866.0867462158203,34.40000104904175C879.7459125518799,34.40000104904175,893.4050788879395,34.40000104904175,900.2346620559692,34.40000104904175L907.064245223999,34.40000104904175" style="stroke: rgb(0, 0, 0); stroke-width: 1px; fill: none; marker-end: url(&quot;#arrowhead&quot;);"/></g><g id="edge-labels" class="edge-labels"><text style="opacity: 1; font-family: -apple-system, BlinkMacSystemFont, &quot;Segoe WPC&quot;, &quot;Segoe UI&quot;, &quot;Ubuntu&quot;, &quot;Droid Sans&quot;, sans-serif, &quot;PingFang SC&quot;; font-size: 10px;" class="edge-label" id="edge-label-edge-input" transform="translate(57.32366752624512,44.40000104904175)"><tspan xml:space="preserve" dy="1em" x="1">batch_size×784</tspan></text><text style="opacity: 1; font-family: -apple-system, BlinkMacSystemFont, &quot;Segoe WPC&quot;, &quot;Segoe UI&quot;, &quot;Ubuntu&quot;, &quot;Droid Sans&quot;, sans-serif, &quot;PingFang SC&quot;; font-size: 10px;" class="edge-label" id="edge-label-edge-output" transform="translate(835.1092472076416,44.40000104904175)"><tspan xml:space="preserve" dy="1em" x="1">batch_size×10</tspan></text></g><g id="nodes" class="nodes"><g id="input-name-input" class="node graph-input" style="" transform="translate(0,23.910000801086426)"><g class="node-item graph-item-input" transform="translate(0,0)"><path d="M5,0h27.323667526245117a5,5 0 0 1 5,5v10.980000495910645a5,5 0 0 1 -5,5h-27.323667526245117a5,5 0 0 1 -5,-5v-10.980000495910645a5,5 0 0 1 5,-5z" style="stroke: rgb(0, 0, 0); fill: rgb(238, 238, 238); stroke-width: 0px;"/><text x="6" y="14.642499923706055" style="font-family: -apple-system, BlinkMacSystemFont, &quot;Segoe WPC&quot;, &quot;Segoe UI&quot;, &quot;Ubuntu&quot;, &quot;Droid Sans&quot;, sans-serif, &quot;PingFang SC&quot;; font-size: 11px; text-rendering: geometricprecision; user-select: none;">input</text><title>float32[batch_size,784]</title></g><path class="node node-border" d="M5,0h27.323667526245117a5,5 0 0 1 5,5v10.980000495910645a5,5 0 0 1 -5,5h-27.323667526245117a5,5 0 0 1 -5,-5v-10.980000495910645a5,5 0 0 1 5,-5z" style="stroke: rgb(51, 51, 51); fill: none; stroke-width: 1px;"/></g><g id="node-name-/Flatten" class="node graph-node" style="" transform="translate(146.291166305542,23.910000801086426)"><g class="node-item node-item-type node-item-type-shape" transform="translate(0,0)"><path d="M5,0h35.577335357666016a5,5 0 0 1 5,5v10.980000495910645a5,5 0 0 1 -5,5h-35.577335357666016a5,5 0 0 1 -5,-5v-10.980000495910645a5,5 0 0 1 5,-5z" style="stroke: rgb(0, 0, 0); fill: rgb(108, 79, 71); stroke-width: 0px;"/><text x="6" y="14.642499923706055" style="font-family: -apple-system, BlinkMacSystemFont, &quot;Segoe WPC&quot;, &quot;Segoe UI&quot;, &quot;Ubuntu&quot;, &quot;Droid Sans&quot;, sans-serif, &quot;PingFang SC&quot;; font-size: 11px; text-rendering: geometricprecision; user-select: none; fill: rgb(255, 255, 255);">Flatten</text><title>/Flatten</title></g><path class="node node-border" d="M5,0h35.577335357666016a5,5 0 0 1 5,5v10.980000495910645a5,5 0 0 1 -5,5h-35.577335357666016a5,5 0 0 1 -5,-5v-10.980000495910645a5,5 0 0 1 5,-5z" style="stroke: rgb(51, 51, 51); fill: none; stroke-width: 1px;"/></g><g id="node-name-/model/model.0/Gemm" class="node graph-node" style="" transform="translate(211.868501663208,0)"><g class="node-item node-item-type node-item-type-layer" transform="translate(0,0)"><path d="M5,0h65a5,5 0 0 1 5,5v15.980000495910645a0,0 0 0 1 0,0h-75a0,0 0 0 1 0,0v-15.980000495910645a5,5 0 0 1 5,-5z" style="stroke: rgb(0, 0, 0); fill: rgb(51, 85, 136); stroke-width: 0px;"/><text x="6" y="14.642499923706055" style="font-family: -apple-system, BlinkMacSystemFont, &quot;Segoe WPC&quot;, &quot;Segoe UI&quot;, &quot;Ubuntu&quot;, &quot;Droid Sans&quot;, sans-serif, &quot;PingFang SC&quot;; font-size: 11px; text-rendering: geometricprecision; user-select: none; fill: rgb(255, 255, 255);">Gemm</text><title>/model/model.0/Gemm</title></g><g class="node-argument-list" transform="translate(0,20.980000495910645)"><path d="M0,0h75a0,0 0 0 1 0,0v42.82000160217285a5,5 0 0 1 -5,5h-65a5,5 0 0 1 -5,-5v-42.82000160217285a0,0 0 0 1 0,0z" style="stroke: rgb(0, 0, 0); fill: rgb(255, 255, 255); stroke-width: 0px;"/><g class="node-argument"><rect rx="3" ry="3" x="3" y="3" width="69" height="14.600000381469727" style="fill: transparent;"/><text xml:space="preserve" x="6" y="13.539999961853027" style="font-family: -apple-system, BlinkMacSystemFont, &quot;Segoe WPC&quot;, &quot;Segoe UI&quot;, &quot;Ubuntu&quot;, &quot;Droid Sans&quot;, sans-serif, &quot;PingFang SC&quot;; font-size: 9px; font-weight: normal; text-rendering: geometricprecision; user-select: none;"><title>float32[256,784]</title><tspan style="font-weight: bold;">B</tspan><tspan>〈256×784〉</tspan></text></g><g class="node-argument"><rect rx="3" ry="3" x="3" y="17.600000381469727" width="69" height="14.600000381469727" style="fill: transparent;"/><text xml:space="preserve" x="6" y="28.140000343322754" style="font-family: -apple-system, BlinkMacSystemFont, &quot;Segoe WPC&quot;, &quot;Segoe UI&quot;, &quot;Ubuntu&quot;, &quot;Droid Sans&quot;, sans-serif, &quot;PingFang SC&quot;; font-size: 9px; font-weight: normal; text-rendering: geometricprecision; user-select: none;"><title>float32[256]</title><tspan style="font-weight: bold;">C</tspan><tspan>〈256〉</tspan></text></g><g class="node-argument"><rect rx="3" ry="3" x="3" y="32.20000076293945" width="69" height="12.620000839233398" style="fill: transparent;"/><text xml:space="preserve" x="6" y="41.907501220703125" style="font-family: -apple-system, BlinkMacSystemFont, &quot;Segoe WPC&quot;, &quot;Segoe UI&quot;, &quot;Ubuntu&quot;, &quot;Droid Sans&quot;, sans-serif, &quot;PingFang SC&quot;; font-size: 9px; font-weight: normal; text-rendering: geometricprecision; user-select: none;"><title>int64</title><tspan>transB</tspan><tspan> = 1</tspan></text></g><line class="node" x1="0" x2="75" y1="0" y2="0" style="stroke: rgb(51, 51, 51); fill: none; stroke-width: 1px;"/></g><path class="node node-border" d="M5,0h65a5,5 0 0 1 5,5v58.800002098083496a5,5 0 0 1 -5,5h-65a5,5 0 0 1 -5,-5v-58.800002098083496a5,5 0 0 1 5,-5z" style="stroke: rgb(51, 51, 51); fill: none; stroke-width: 1px;"/></g><g id="node-name-/model/model.1/Relu" class="node graph-node" style="" transform="translate(306.868501663208,23.910000801086426)"><g class="node-item node-item-type node-item-type-activation" transform="translate(0,0)"><path d="M5,0h24.37383270263672a5,5 0 0 1 5,5v10.980000495910645a5,5 0 0 1 -5,5h-24.37383270263672a5,5 0 0 1 -5,-5v-10.980000495910645a5,5 0 0 1 5,-5z" style="stroke: rgb(0, 0, 0); fill: rgb(112, 41, 33); stroke-width: 0px;"/><text x="6" y="14.642499923706055" style="font-family: -apple-system, BlinkMacSystemFont, &quot;Segoe WPC&quot;, &quot;Segoe UI&quot;, &quot;Ubuntu&quot;, &quot;Droid Sans&quot;, sans-serif, &quot;PingFang SC&quot;; font-size: 11px; text-rendering: geometricprecision; user-select: none; fill: rgb(255, 255, 255);">Relu</text><title>/model/model.1/Relu</title></g><path class="node node-border" d="M5,0h24.37383270263672a5,5 0 0 1 5,5v10.980000495910645a5,5 0 0 1 -5,5h-24.37383270263672a5,5 0 0 1 -5,-5v-10.980000495910645a5,5 0 0 1 5,-5z" style="stroke: rgb(51, 51, 51); fill: none; stroke-width: 1px;"/></g><g id="node-name-/model/model.2/Gemm" class="node graph-node" style="" transform="translate(361.2423343658447,0)"><g class="node-item node-item-type node-item-type-layer" transform="translate(0,0)"><path d="M5,0h65a5,5 0 0 1 5,5v15.980000495910645a0,0 0 0 1 0,0h-75a0,0 0 0 1 0,0v-15.980000495910645a5,5 0 0 1 5,-5z" style="stroke: rgb(0, 0, 0); fill: rgb(51, 85, 136); stroke-width: 0px;"/><text x="6" y="14.642499923706055" style="font-family: -apple-system, BlinkMacSystemFont, &quot;Segoe WPC&quot;, &quot;Segoe UI&quot;, &quot;Ubuntu&quot;, &quot;Droid Sans&quot;, sans-serif, &quot;PingFang SC&quot;; font-size: 11px; text-rendering: geometricprecision; user-select: none; fill: rgb(255, 255, 255);">Gemm</text><title>/model/model.2/Gemm</title></g><g class="node-argument-list" transform="translate(0,20.980000495910645)"><path d="M0,0h75a0,0 0 0 1 0,0v42.82000160217285a5,5 0 0 1 -5,5h-65a5,5 0 0 1 -5,-5v-42.82000160217285a0,0 0 0 1 0,0z" style="stroke: rgb(0, 0, 0); fill: rgb(255, 255, 255); stroke-width: 0px;"/><g class="node-argument"><rect rx="3" ry="3" x="3" y="3" width="69" height="14.600000381469727" style="fill: transparent;"/><text xml:space="preserve" x="6" y="13.539999961853027" style="font-family: -apple-system, BlinkMacSystemFont, &quot;Segoe WPC&quot;, &quot;Segoe UI&quot;, &quot;Ubuntu&quot;, &quot;Droid Sans&quot;, sans-serif, &quot;PingFang SC&quot;; font-size: 9px; font-weight: normal; text-rendering: geometricprecision; user-select: none;"><title>float32[256,256]</title><tspan style="font-weight: bold;">B</tspan><tspan>〈256×256〉</tspan></text></g><g class="node-argument"><rect rx="3" ry="3" x="3" y="17.600000381469727" width="69" height="14.600000381469727" style="fill: transparent;"/><text xml:space="preserve" x="6" y="28.140000343322754" style="font-family: -apple-system, BlinkMacSystemFont, &quot;Segoe WPC&quot;, &quot;Segoe UI&quot;, &quot;Ubuntu&quot;, &quot;Droid Sans&quot;, sans-serif, &quot;PingFang SC&quot;; font-size: 9px; font-weight: normal; text-rendering: geometricprecision; user-select: none;"><title>float32[256]</title><tspan style="font-weight: bold;">C</tspan><tspan>〈256〉</tspan></text></g><g class="node-argument"><rect rx="3" ry="3" x="3" y="32.20000076293945" width="69" height="12.620000839233398" style="fill: transparent;"/><text xml:space="preserve" x="6" y="41.907501220703125" style="font-family: -apple-system, BlinkMacSystemFont, &quot;Segoe WPC&quot;, &quot;Segoe UI&quot;, &quot;Ubuntu&quot;, &quot;Droid Sans&quot;, sans-serif, &quot;PingFang SC&quot;; font-size: 9px; font-weight: normal; text-rendering: geometricprecision; user-select: none;"><title>int64</title><tspan>transB</tspan><tspan> = 1</tspan></text></g><line class="node" x1="0" x2="75" y1="0" y2="0" style="stroke: rgb(51, 51, 51); fill: none; stroke-width: 1px;"/></g><path class="node node-border" d="M5,0h65a5,5 0 0 1 5,5v58.800002098083496a5,5 0 0 1 -5,5h-65a5,5 0 0 1 -5,-5v-58.800002098083496a5,5 0 0 1 5,-5z" style="stroke: rgb(51, 51, 51); fill: none; stroke-width: 1px;"/></g><g id="node-name-/model/model.3/Relu" class="node graph-node" style="" transform="translate(456.2423343658447,23.910000801086426)"><g class="node-item node-item-type node-item-type-activation" transform="translate(0,0)"><path d="M5,0h24.37383270263672a5,5 0 0 1 5,5v10.980000495910645a5,5 0 0 1 -5,5h-24.37383270263672a5,5 0 0 1 -5,-5v-10.980000495910645a5,5 0 0 1 5,-5z" style="stroke: rgb(0, 0, 0); fill: rgb(112, 41, 33); stroke-width: 0px;"/><text x="6" y="14.642499923706055" style="font-family: -apple-system, BlinkMacSystemFont, &quot;Segoe WPC&quot;, &quot;Segoe UI&quot;, &quot;Ubuntu&quot;, &quot;Droid Sans&quot;, sans-serif, &quot;PingFang SC&quot;; font-size: 11px; text-rendering: geometricprecision; user-select: none; fill: rgb(255, 255, 255);">Relu</text><title>/model/model.3/Relu</title></g><path class="node node-border" d="M5,0h24.37383270263672a5,5 0 0 1 5,5v10.980000495910645a5,5 0 0 1 -5,5h-24.37383270263672a5,5 0 0 1 -5,-5v-10.980000495910645a5,5 0 0 1 5,-5z" style="stroke: rgb(51, 51, 51); fill: none; stroke-width: 1px;"/></g><g id="node-name-/model/model.4/Gemm" class="node graph-node" style="" transform="translate(510.61616706848145,0)"><g class="node-item node-item-type node-item-type-layer" transform="translate(0,0)"><path d="M5,0h65a5,5 0 0 1 5,5v15.980000495910645a0,0 0 0 1 0,0h-75a0,0 0 0 1 0,0v-15.980000495910645a5,5 0 0 1 5,-5z" style="stroke: rgb(0, 0, 0); fill: rgb(51, 85, 136); stroke-width: 0px;"/><text x="6" y="14.642499923706055" style="font-family: -apple-system, BlinkMacSystemFont, &quot;Segoe WPC&quot;, &quot;Segoe UI&quot;, &quot;Ubuntu&quot;, &quot;Droid Sans&quot;, sans-serif, &quot;PingFang SC&quot;; font-size: 11px; text-rendering: geometricprecision; user-select: none; fill: rgb(255, 255, 255);">Gemm</text><title>/model/model.4/Gemm</title></g><g class="node-argument-list" transform="translate(0,20.980000495910645)"><path d="M0,0h75a0,0 0 0 1 0,0v42.82000160217285a5,5 0 0 1 -5,5h-65a5,5 0 0 1 -5,-5v-42.82000160217285a0,0 0 0 1 0,0z" style="stroke: rgb(0, 0, 0); fill: rgb(255, 255, 255); stroke-width: 0px;"/><g class="node-argument"><rect rx="3" ry="3" x="3" y="3" width="69" height="14.600000381469727" style="fill: transparent;"/><text xml:space="preserve" x="6" y="13.539999961853027" style="font-family: -apple-system, BlinkMacSystemFont, &quot;Segoe WPC&quot;, &quot;Segoe UI&quot;, &quot;Ubuntu&quot;, &quot;Droid Sans&quot;, sans-serif, &quot;PingFang SC&quot;; font-size: 9px; font-weight: normal; text-rendering: geometricprecision; user-select: none;"><title>float32[256,256]</title><tspan style="font-weight: bold;">B</tspan><tspan>〈256×256〉</tspan></text></g><g class="node-argument"><rect rx="3" ry="3" x="3" y="17.600000381469727" width="69" height="14.600000381469727" style="fill: transparent;"/><text xml:space="preserve" x="6" y="28.140000343322754" style="font-family: -apple-system, BlinkMacSystemFont, &quot;Segoe WPC&quot;, &quot;Segoe UI&quot;, &quot;Ubuntu&quot;, &quot;Droid Sans&quot;, sans-serif, &quot;PingFang SC&quot;; font-size: 9px; font-weight: normal; text-rendering: geometricprecision; user-select: none;"><title>float32[256]</title><tspan style="font-weight: bold;">C</tspan><tspan>〈256〉</tspan></text></g><g class="node-argument"><rect rx="3" ry="3" x="3" y="32.20000076293945" width="69" height="12.620000839233398" style="fill: transparent;"/><text xml:space="preserve" x="6" y="41.907501220703125" style="font-family: -apple-system, BlinkMacSystemFont, &quot;Segoe WPC&quot;, &quot;Segoe UI&quot;, &quot;Ubuntu&quot;, &quot;Droid Sans&quot;, sans-serif, &quot;PingFang SC&quot;; font-size: 9px; font-weight: normal; text-rendering: geometricprecision; user-select: none;"><title>int64</title><tspan>transB</tspan><tspan> = 1</tspan></text></g><line class="node" x1="0" x2="75" y1="0" y2="0" style="stroke: rgb(51, 51, 51); fill: none; stroke-width: 1px;"/></g><path class="node node-border" d="M5,0h65a5,5 0 0 1 5,5v58.800002098083496a5,5 0 0 1 -5,5h-65a5,5 0 0 1 -5,-5v-58.800002098083496a5,5 0 0 1 5,-5z" style="stroke: rgb(51, 51, 51); fill: none; stroke-width: 1px;"/></g><g id="node-name-/model/model.5/Relu" class="node graph-node" style="" transform="translate(605.6161670684814,23.910000801086426)"><g class="node-item node-item-type node-item-type-activation" transform="translate(0,0)"><path d="M5,0h24.37383270263672a5,5 0 0 1 5,5v10.980000495910645a5,5 0 0 1 -5,5h-24.37383270263672a5,5 0 0 1 -5,-5v-10.980000495910645a5,5 0 0 1 5,-5z" style="stroke: rgb(0, 0, 0); fill: rgb(112, 41, 33); stroke-width: 0px;"/><text x="6" y="14.642499923706055" style="font-family: -apple-system, BlinkMacSystemFont, &quot;Segoe WPC&quot;, &quot;Segoe UI&quot;, &quot;Ubuntu&quot;, &quot;Droid Sans&quot;, sans-serif, &quot;PingFang SC&quot;; font-size: 11px; text-rendering: geometricprecision; user-select: none; fill: rgb(255, 255, 255);">Relu</text><title>/model/model.5/Relu</title></g><path class="node node-border" d="M5,0h24.37383270263672a5,5 0 0 1 5,5v10.980000495910645a5,5 0 0 1 -5,5h-24.37383270263672a5,5 0 0 1 -5,-5v-10.980000495910645a5,5 0 0 1 5,-5z" style="stroke: rgb(51, 51, 51); fill: none; stroke-width: 1px;"/></g><g id="node-name-/model/model.6/Gemm" class="node graph-node" style="" transform="translate(659.9899997711182,0)"><g class="node-item node-item-type node-item-type-layer" transform="translate(0,0)"><path d="M5,0h65a5,5 0 0 1 5,5v15.980000495910645a0,0 0 0 1 0,0h-75a0,0 0 0 1 0,0v-15.980000495910645a5,5 0 0 1 5,-5z" style="stroke: rgb(0, 0, 0); fill: rgb(51, 85, 136); stroke-width: 0px;"/><text x="6" y="14.642499923706055" style="font-family: -apple-system, BlinkMacSystemFont, &quot;Segoe WPC&quot;, &quot;Segoe UI&quot;, &quot;Ubuntu&quot;, &quot;Droid Sans&quot;, sans-serif, &quot;PingFang SC&quot;; font-size: 11px; text-rendering: geometricprecision; user-select: none; fill: rgb(255, 255, 255);">Gemm</text><title>/model/model.6/Gemm</title></g><g class="node-argument-list" transform="translate(0,20.980000495910645)"><path d="M0,0h75a0,0 0 0 1 0,0v42.82000160217285a5,5 0 0 1 -5,5h-65a5,5 0 0 1 -5,-5v-42.82000160217285a0,0 0 0 1 0,0z" style="stroke: rgb(0, 0, 0); fill: rgb(255, 255, 255); stroke-width: 0px;"/><g class="node-argument"><rect rx="3" ry="3" x="3" y="3" width="69" height="14.600000381469727" style="fill: transparent;"/><text xml:space="preserve" x="6" y="13.539999961853027" style="font-family: -apple-system, BlinkMacSystemFont, &quot;Segoe WPC&quot;, &quot;Segoe UI&quot;, &quot;Ubuntu&quot;, &quot;Droid Sans&quot;, sans-serif, &quot;PingFang SC&quot;; font-size: 9px; font-weight: normal; text-rendering: geometricprecision; user-select: none;"><title>float32[10,256]</title><tspan style="font-weight: bold;">B</tspan><tspan>〈10×256〉</tspan></text></g><g class="node-argument"><rect rx="3" ry="3" x="3" y="17.600000381469727" width="69" height="14.600000381469727" style="fill: transparent;"/><text xml:space="preserve" x="6" y="28.140000343322754" style="font-family: -apple-system, BlinkMacSystemFont, &quot;Segoe WPC&quot;, &quot;Segoe UI&quot;, &quot;Ubuntu&quot;, &quot;Droid Sans&quot;, sans-serif, &quot;PingFang SC&quot;; font-size: 9px; font-weight: normal; text-rendering: geometricprecision; user-select: none;"><title>float32[10]</title><tspan style="font-weight: bold;">C</tspan><tspan>〈10〉</tspan></text></g><g class="node-argument"><rect rx="3" ry="3" x="3" y="32.20000076293945" width="69" height="12.620000839233398" style="fill: transparent;"/><text xml:space="preserve" x="6" y="41.907501220703125" style="font-family: -apple-system, BlinkMacSystemFont, &quot;Segoe WPC&quot;, &quot;Segoe UI&quot;, &quot;Ubuntu&quot;, &quot;Droid Sans&quot;, sans-serif, &quot;PingFang SC&quot;; font-size: 9px; font-weight: normal; text-rendering: geometricprecision; user-select: none;"><title>int64</title><tspan>transB</tspan><tspan> = 1</tspan></text></g><line class="node" x1="0" x2="75" y1="0" y2="0" style="stroke: rgb(51, 51, 51); fill: none; stroke-width: 1px;"/></g><path class="node node-border" d="M5,0h65a5,5 0 0 1 5,5v58.800002098083496a5,5 0 0 1 -5,5h-65a5,5 0 0 1 -5,-5v-58.800002098083496a5,5 0 0 1 5,-5z" style="stroke: rgb(51, 51, 51); fill: none; stroke-width: 1px;"/></g><g id="node-name-/LogSoftmax" class="node graph-node" style="" transform="translate(754.9899997711182,23.910000801086426)"><g class="node-item node-item-type node-item-type-activation" transform="translate(0,0)"><path d="M5,0h60.11924743652344a5,5 0 0 1 5,5v10.980000495910645a5,5 0 0 1 -5,5h-60.11924743652344a5,5 0 0 1 -5,-5v-10.980000495910645a5,5 0 0 1 5,-5z" style="stroke: rgb(0, 0, 0); fill: rgb(112, 41, 33); stroke-width: 0px;"/><text x="6" y="14.642499923706055" style="font-family: -apple-system, BlinkMacSystemFont, &quot;Segoe WPC&quot;, &quot;Segoe UI&quot;, &quot;Ubuntu&quot;, &quot;Droid Sans&quot;, sans-serif, &quot;PingFang SC&quot;; font-size: 11px; text-rendering: geometricprecision; user-select: none; fill: rgb(255, 255, 255);">LogSoftmax</text><title>/LogSoftmax</title></g><path class="node node-border" d="M5,0h60.11924743652344a5,5 0 0 1 5,5v10.980000495910645a5,5 0 0 1 -5,5h-60.11924743652344a5,5 0 0 1 -5,-5v-10.980000495910645a5,5 0 0 1 5,-5z" style="stroke: rgb(51, 51, 51); fill: none; stroke-width: 1px;"/></g><g class="node" style="" transform="translate(907.064245223999,23.910000801086426)"><g class="node-item graph-item-output" transform="translate(0,0)"><path d="M5,0h34.208749771118164a5,5 0 0 1 5,5v10.980000495910645a5,5 0 0 1 -5,5h-34.208749771118164a5,5 0 0 1 -5,-5v-10.980000495910645a5,5 0 0 1 5,-5z" style="stroke: rgb(0, 0, 0); fill: rgb(238, 238, 238); stroke-width: 0px;"/><text x="6" y="14.642499923706055" style="font-family: -apple-system, BlinkMacSystemFont, &quot;Segoe WPC&quot;, &quot;Segoe UI&quot;, &quot;Ubuntu&quot;, &quot;Droid Sans&quot;, sans-serif, &quot;PingFang SC&quot;; font-size: 11px; text-rendering: geometricprecision; user-select: none;">output</text><title>float32[batch_size,10]</title></g><path class="node node-border" d="M5,0h34.208749771118164a5,5 0 0 1 5,5v10.980000495910645a5,5 0 0 1 -5,5h-34.208749771118164a5,5 0 0 1 -5,-5v-10.980000495910645a5,5 0 0 1 5,-5z" style="stroke: rgb(51, 51, 51); fill: none; stroke-width: 1px;"/></g></g></g></svg>